<svg width="194" height="31" viewBox="0 0 194 31" fill="none" xmlns="http://www.w3.org/2000/svg">
<circle cx="15.5002" cy="15.5" r="12.9167" fill="#00A884"/>
<path d="M15.5002 28.4167C22.6338 28.4167 28.4168 22.6337 28.4168 15.5C28.4168 8.36636 22.6338 2.58337 15.5002 2.58337C8.36649 2.58337 2.5835 8.36636 2.5835 15.5C2.5835 22.6337 8.36649 28.4167 15.5002 28.4167Z" stroke="#00A884" stroke-width="2" stroke-linecap="round" stroke-linejoin="round"/>
<path d="M15.4982 9.04163V20.6653M9.3618 17.6897C9.28508 17.6494 9.21842 17.5953 9.16599 17.5307C9.11357 17.4662 9.07649 17.3927 9.05709 17.3147C9.03769 17.2367 9.03639 17.1559 9.05325 17.0774C9.07011 16.9989 9.10478 16.9244 9.1551 16.8586L14.9686 9.29154C15.0281 9.2148 15.1073 9.15214 15.1996 9.10887C15.2918 9.0656 15.3942 9.043 15.4982 9.043C15.6022 9.043 15.7047 9.0656 15.7969 9.10887C15.8891 9.15214 15.9684 9.2148 16.0279 9.29154L21.8414 16.8528C21.8928 16.9188 21.9283 16.9938 21.9458 17.0729C21.9633 17.1519 21.9622 17.2334 21.9428 17.3122C21.9233 17.3909 21.8859 17.4651 21.8329 17.5301C21.7798 17.5951 21.7123 17.6494 21.6347 17.6897L16.1377 20.5142C15.9429 20.6141 15.7225 20.6666 15.4982 20.6666C15.274 20.6666 15.0536 20.6141 14.8588 20.5142L9.3618 17.6897Z" stroke="white" stroke-width="2" stroke-linecap="round" stroke-linejoin="round"/>
<path d="M43 24L40.264 19.872L37.84 24H34.24L38.584 17.328L34.192 10.704H37.984L40.696 14.808L43.144 10.704H46.744L42.376 17.328L46.792 24H43ZM51.0169 12.624C51.4489 12.016 52.0409 11.512 52.7929 11.112C53.5609 10.696 54.4329 10.488 55.4089 10.488C56.5449 10.488 57.5689 10.768 58.4809 11.328C59.4089 11.888 60.1369 12.688 60.6649 13.728C61.2089 14.752 61.4809 15.944 61.4809 17.304C61.4809 18.664 61.2089 19.872 60.6649 20.928C60.1369 21.968 59.4089 22.776 58.4809 23.352C57.5689 23.928 56.5449 24.216 55.4089 24.216C54.4329 24.216 53.5689 24.016 52.8169 23.616C52.0809 23.216 51.4809 22.712 51.0169 22.104V30.336H47.6569V10.704H51.0169V12.624ZM58.0489 17.304C58.0489 16.504 57.8809 15.816 57.5449 15.24C57.2249 14.648 56.7929 14.2 56.2489 13.896C55.7209 13.592 55.1449 13.44 54.5209 13.44C53.9129 13.44 53.3369 13.6 52.7929 13.92C52.2649 14.224 51.8329 14.672 51.4969 15.264C51.1769 15.856 51.0169 16.552 51.0169 17.352C51.0169 18.152 51.1769 18.848 51.4969 19.44C51.8329 20.032 52.2649 20.488 52.7929 20.808C53.3369 21.112 53.9129 21.264 54.5209 21.264C55.1449 21.264 55.7209 21.104 56.2489 20.784C56.7929 20.464 57.2249 20.008 57.5449 19.416C57.8809 18.824 58.0489 18.12 58.0489 17.304ZM66.3226 6.24V24H62.9626V6.24H66.3226ZM74.5862 24.216C73.3062 24.216 72.1542 23.936 71.1302 23.376C70.1062 22.8 69.2982 21.992 68.7062 20.952C68.1302 19.912 67.8422 18.712 67.8422 17.352C67.8422 15.992 68.1382 14.792 68.7302 13.752C69.3382 12.712 70.1622 11.912 71.2022 11.352C72.2422 10.776 73.4022 10.488 74.6822 10.488C75.9622 10.488 77.1222 10.776 78.1622 11.352C79.2022 11.912 80.0182 12.712 80.6102 13.752C81.2182 14.792 81.5222 15.992 81.5222 17.352C81.5222 18.712 81.2102 19.912 80.5862 20.952C79.9782 21.992 79.1462 22.8 78.0902 23.376C77.0502 23.936 75.8822 24.216 74.5862 24.216ZM74.5862 21.288C75.1942 21.288 75.7622 21.144 76.2902 20.856C76.8342 20.552 77.2662 20.104 77.5862 19.512C77.9062 18.92 78.0662 18.2 78.0662 17.352C78.0662 16.088 77.7302 15.12 77.0582 14.448C76.4022 13.76 75.5942 13.416 74.6342 13.416C73.6742 13.416 72.8662 13.76 72.2102 14.448C71.5702 15.12 71.2502 16.088 71.2502 17.352C71.2502 18.616 71.5622 19.592 72.1862 20.28C72.8262 20.952 73.6262 21.288 74.5862 21.288ZM86.3869 12.768C86.8189 12.064 87.3789 11.512 88.0669 11.112C88.7709 10.712 89.5709 10.512 90.4669 10.512V14.04H89.5789C88.5229 14.04 87.7229 14.288 87.1789 14.784C86.6509 15.28 86.3869 16.144 86.3869 17.376V24H83.0269V10.704H86.3869V12.768ZM90.9061 17.304C90.9061 15.96 91.1701 14.768 91.6981 13.728C92.2421 12.688 92.9701 11.888 93.8821 11.328C94.8101 10.768 95.8421 10.488 96.9781 10.488C97.9701 10.488 98.8341 10.688 99.5701 11.088C100.322 11.488 100.922 11.992 101.37 12.6V10.704H104.754V24H101.37V22.056C100.938 22.68 100.338 23.2 99.5701 23.616C98.8181 24.016 97.9461 24.216 96.9541 24.216C95.8341 24.216 94.8101 23.928 93.8821 23.352C92.9701 22.776 92.2421 21.968 91.6981 20.928C91.1701 19.872 90.9061 18.664 90.9061 17.304ZM101.37 17.352C101.37 16.536 101.21 15.84 100.89 15.264C100.57 14.672 100.138 14.224 99.5941 13.92C99.0501 13.6 98.4661 13.44 97.8421 13.44C97.2181 13.44 96.6421 13.592 96.1141 13.896C95.5861 14.2 95.1541 14.648 94.8181 15.24C94.4981 15.816 94.3381 16.504 94.3381 17.304C94.3381 18.104 94.4981 18.808 94.8181 19.416C95.1541 20.008 95.5861 20.464 96.1141 20.784C96.6581 21.104 97.2341 21.264 97.8421 21.264C98.4661 21.264 99.0501 21.112 99.5941 20.808C100.138 20.488 100.57 20.04 100.89 19.464C101.21 18.872 101.37 18.168 101.37 17.352Z" fill="#00A884"/>
<path d="M106.212 17.352C106.212 15.976 106.492 14.776 107.052 13.752C107.612 12.712 108.388 11.912 109.38 11.352C110.372 10.776 111.508 10.488 112.788 10.488C114.436 10.488 115.796 10.904 116.868 11.736C117.956 12.552 118.684 13.704 119.052 15.192H115.428C115.236 14.616 114.908 14.168 114.444 13.848C113.996 13.512 113.436 13.344 112.764 13.344C111.804 13.344 111.044 13.696 110.484 14.4C109.924 15.088 109.644 16.072 109.644 17.352C109.644 18.616 109.924 19.6 110.484 20.304C111.044 20.992 111.804 21.336 112.764 21.336C114.124 21.336 115.012 20.728 115.428 19.512H119.052C118.684 20.952 117.956 22.096 116.868 22.944C115.78 23.792 114.42 24.216 112.788 24.216C111.508 24.216 110.372 23.936 109.38 23.376C108.388 22.8 107.612 22 107.052 20.976C106.492 19.936 106.212 18.728 106.212 17.352ZM119.689 17.304C119.689 15.96 119.953 14.768 120.481 13.728C121.025 12.688 121.753 11.888 122.665 11.328C123.593 10.768 124.625 10.488 125.761 10.488C126.753 10.488 127.617 10.688 128.353 11.088C129.105 11.488 129.705 11.992 130.153 12.6V10.704H133.537V24H130.153V22.056C129.721 22.68 129.121 23.2 128.353 23.616C127.601 24.016 126.729 24.216 125.737 24.216C124.617 24.216 123.593 23.928 122.665 23.352C121.753 22.776 121.025 21.968 120.481 20.928C119.953 19.872 119.689 18.664 119.689 17.304ZM130.153 17.352C130.153 16.536 129.993 15.84 129.673 15.264C129.353 14.672 128.921 14.224 128.377 13.92C127.833 13.6 127.249 13.44 126.625 13.44C126.001 13.44 125.425 13.592 124.897 13.896C124.369 14.2 123.937 14.648 123.601 15.24C123.281 15.816 123.121 16.504 123.121 17.304C123.121 18.104 123.281 18.808 123.601 19.416C123.937 20.008 124.369 20.464 124.897 20.784C125.441 21.104 126.017 21.264 126.625 21.264C127.249 21.264 127.833 21.112 128.377 20.808C128.921 20.488 129.353 20.04 129.673 19.464C129.993 18.872 130.153 18.168 130.153 17.352ZM143.227 10.512C144.811 10.512 146.091 11.016 147.067 12.024C148.043 13.016 148.531 14.408 148.531 16.2V24H145.171V16.656C145.171 15.6 144.907 14.792 144.379 14.232C143.851 13.656 143.131 13.368 142.219 13.368C141.291 13.368 140.555 13.656 140.011 14.232C139.483 14.792 139.219 15.6 139.219 16.656V24H135.859V10.704H139.219V12.36C139.667 11.784 140.235 11.336 140.923 11.016C141.627 10.68 142.395 10.512 143.227 10.512ZM149.902 17.352C149.902 15.976 150.182 14.776 150.742 13.752C151.302 12.712 152.078 11.912 153.07 11.352C154.062 10.776 155.198 10.488 156.478 10.488C158.126 10.488 159.486 10.904 160.558 11.736C161.646 12.552 162.374 13.704 162.742 15.192H159.118C158.926 14.616 158.598 14.168 158.134 13.848C157.686 13.512 157.126 13.344 156.454 13.344C155.494 13.344 154.734 13.696 154.174 14.4C153.614 15.088 153.334 16.072 153.334 17.352C153.334 18.616 153.614 19.6 154.174 20.304C154.734 20.992 155.494 21.336 156.454 21.336C157.814 21.336 158.702 20.728 159.118 19.512H162.742C162.374 20.952 161.646 22.096 160.558 22.944C159.47 23.792 158.11 24.216 156.478 24.216C155.198 24.216 154.062 23.936 153.07 23.376C152.078 22.8 151.302 22 150.742 20.976C150.182 19.936 149.902 18.728 149.902 17.352ZM176.795 10.704V24H173.411V22.32C172.979 22.896 172.411 23.352 171.707 23.688C171.019 24.008 170.267 24.168 169.451 24.168C168.411 24.168 167.491 23.952 166.691 23.52C165.891 23.072 165.259 22.424 164.795 21.576C164.347 20.712 164.123 19.688 164.123 18.504V10.704H167.483V18.024C167.483 19.08 167.747 19.896 168.275 20.472C168.803 21.032 169.523 21.312 170.435 21.312C171.363 21.312 172.091 21.032 172.619 20.472C173.147 19.896 173.411 19.08 173.411 18.024V10.704H176.795ZM186.519 10.512C188.103 10.512 189.383 11.016 190.359 12.024C191.335 13.016 191.823 14.408 191.823 16.2V24H188.463V16.656C188.463 15.6 188.199 14.792 187.671 14.232C187.143 13.656 186.423 13.368 185.511 13.368C184.583 13.368 183.847 13.656 183.303 14.232C182.775 14.792 182.511 15.6 182.511 16.656V24H179.151V10.704H182.511V12.36C182.959 11.784 183.527 11.336 184.215 11.016C184.919 10.68 185.687 10.512 186.519 10.512Z" fill="black"/>
</svg>
